<svg version="1.1" xmlns="http://www.w3.org/2000/svg" viewBox="0 0 268 268"  preserveAspectRatio="xMinYMin meet"><rect width="100%" height="100%" fill="white" cx="0" cy="0"/><path d="M2,2l8,0 0,8 -8,0 0,-8z M10,2l8,0 0,8 -8,0 0,-8z M18,2l8,0 0,8 -8,0 0,-8z M26,2l8,0 0,8 -8,0 0,-8z M34,2l8,0 0,8 -8,0 0,-8z M42,2l8,0 0,8 -8,0 0,-8z M50,2l8,0 0,8 -8,0 0,-8z M66,2l8,0 0,8 -8,0 0,-8z M74,2l8,0 0,8 -8,0 0,-8z M106,2l8,0 0,8 -8,0 0,-8z M130,2l8,0 0,8 -8,0 0,-8z M138,2l8,0 0,8 -8,0 0,-8z M154,2l8,0 0,8 -8,0 0,-8z M162,2l8,0 0,8 -8,0 0,-8z M170,2l8,0 0,8 -8,0 0,-8z M186,2l8,0 0,8 -8,0 0,-8z M210,2l8,0 0,8 -8,0 0,-8z M218,2l8,0 0,8 -8,0 0,-8z M226,2l8,0 0,8 -8,0 0,-8z M234,2l8,0 0,8 -8,0 0,-8z M242,2l8,0 0,8 -8,0 0,-8z M250,2l8,0 0,8 -8,0 0,-8z M258,2l8,0 0,8 -8,0 0,-8z M2,10l8,0 0,8 -8,0 0,-8z M50,10l8,0 0,8 -8,0 0,-8z M66,10l8,0 0,8 -8,0 0,-8z M74,10l8,0 0,8 -8,0 0,-8z M82,10l8,0 0,8 -8,0 0,-8z M90,10l8,0 0,8 -8,0 0,-8z M98,10l8,0 0,8 -8,0 0,-8z M106,10l8,0 0,8 -8,0 0,-8z M130,10l8,0 0,8 -8,0 0,-8z M146,10l8,0 0,8 -8,0 0,-8z M170,10l8,0 0,8 -8,0 0,-8z M186,10l8,0 0,8 -8,0 0,-8z M194,10l8,0 0,8 -8,0 0,-8z M210,10l8,0 0,8 -8,0 0,-8z M258,10l8,0 0,8 -8,0 0,-8z M2,18l8,0 0,8 -8,0 0,-8z M18,18l8,0 0,8 -8,0 0,-8z M26,18l8,0 0,8 -8,0 0,-8z M34,18l8,0 0,8 -8,0 0,-8z M50,18l8,0 0,8 -8,0 0,-8z M90,18l8,0 0,8 -8,0 0,-8z M130,18l8,0 0,8 -8,0 0,-8z M138,18l8,0 0,8 -8,0 0,-8z M186,18l8,0 0,8 -8,0 0,-8z M210,18l8,0 0,8 -8,0 0,-8z M226,18l8,0 0,8 -8,0 0,-8z M234,18l8,0 0,8 -8,0 0,-8z M242,18l8,0 0,8 -8,0 0,-8z M258,18l8,0 0,8 -8,0 0,-8z M2,26l8,0 0,8 -8,0 0,-8z M18,26l8,0 0,8 -8,0 0,-8z M26,26l8,0 0,8 -8,0 0,-8z M34,26l8,0 0,8 -8,0 0,-8z M50,26l8,0 0,8 -8,0 0,-8z M66,26l8,0 0,8 -8,0 0,-8z M74,26l8,0 0,8 -8,0 0,-8z M82,26l8,0 0,8 -8,0 0,-8z M98,26l8,0 0,8 -8,0 0,-8z M114,26l8,0 0,8 -8,0 0,-8z M122,26l8,0 0,8 -8,0 0,-8z M130,26l8,0 0,8 -8,0 0,-8z M162,26l8,0 0,8 -8,0 0,-8z M178,26l8,0 0,8 -8,0 0,-8z M186,26l8,0 0,8 -8,0 0,-8z M210,26l8,0 0,8 -8,0 0,-8z M226,26l8,0 0,8 -8,0 0,-8z M234,26l8,0 0,8 -8,0 0,-8z M242,26l8,0 0,8 -8,0 0,-8z M258,26l8,0 0,8 -8,0 0,-8z M2,34l8,0 0,8 -8,0 0,-8z M18,34l8,0 0,8 -8,0 0,-8z M26,34l8,0 0,8 -8,0 0,-8z M34,34l8,0 0,8 -8,0 0,-8z M50,34l8,0 0,8 -8,0 0,-8z M74,34l8,0 0,8 -8,0 0,-8z M90,34l8,0 0,8 -8,0 0,-8z M98,34l8,0 0,8 -8,0 0,-8z M106,34l8,0 0,8 -8,0 0,-8z M114,34l8,0 0,8 -8,0 0,-8z M138,34l8,0 0,8 -8,0 0,-8z M162,34l8,0 0,8 -8,0 0,-8z M170,34l8,0 0,8 -8,0 0,-8z M178,34l8,0 0,8 -8,0 0,-8z M194,34l8,0 0,8 -8,0 0,-8z M210,34l8,0 0,8 -8,0 0,-8z M226,34l8,0 0,8 -8,0 0,-8z M234,34l8,0 0,8 -8,0 0,-8z M242,34l8,0 0,8 -8,0 0,-8z M258,34l8,0 0,8 -8,0 0,-8z M2,42l8,0 0,8 -8,0 0,-8z M50,42l8,0 0,8 -8,0 0,-8z M82,42l8,0 0,8 -8,0 0,-8z M98,42l8,0 0,8 -8,0 0,-8z M106,42l8,0 0,8 -8,0 0,-8z M114,42l8,0 0,8 -8,0 0,-8z M146,42l8,0 0,8 -8,0 0,-8z M154,42l8,0 0,8 -8,0 0,-8z M162,42l8,0 0,8 -8,0 0,-8z M178,42l8,0 0,8 -8,0 0,-8z M210,42l8,0 0,8 -8,0 0,-8z M258,42l8,0 0,8 -8,0 0,-8z M2,50l8,0 0,8 -8,0 0,-8z M10,50l8,0 0,8 -8,0 0,-8z M18,50l8,0 0,8 -8,0 0,-8z M26,50l8,0 0,8 -8,0 0,-8z M34,50l8,0 0,8 -8,0 0,-8z M42,50l8,0 0,8 -8,0 0,-8z M50,50l8,0 0,8 -8,0 0,-8z M66,50l8,0 0,8 -8,0 0,-8z M82,50l8,0 0,8 -8,0 0,-8z M98,50l8,0 0,8 -8,0 0,-8z M114,50l8,0 0,8 -8,0 0,-8z M130,50l8,0 0,8 -8,0 0,-8z M146,50l8,0 0,8 -8,0 0,-8z M162,50l8,0 0,8 -8,0 0,-8z M178,50l8,0 0,8 -8,0 0,-8z M194,50l8,0 0,8 -8,0 0,-8z M210,50l8,0 0,8 -8,0 0,-8z M218,50l8,0 0,8 -8,0 0,-8z M226,50l8,0 0,8 -8,0 0,-8z M234,50l8,0 0,8 -8,0 0,-8z M242,50l8,0 0,8 -8,0 0,-8z M250,50l8,0 0,8 -8,0 0,-8z M258,50l8,0 0,8 -8,0 0,-8z M66,58l8,0 0,8 -8,0 0,-8z M82,58l8,0 0,8 -8,0 0,-8z M138,58l8,0 0,8 -8,0 0,-8z M162,58l8,0 0,8 -8,0 0,-8z M2,66l8,0 0,8 -8,0 0,-8z M18,66l8,0 0,8 -8,0 0,-8z M26,66l8,0 0,8 -8,0 0,-8z M42,66l8,0 0,8 -8,0 0,-8z M50,66l8,0 0,8 -8,0 0,-8z M58,66l8,0 0,8 -8,0 0,-8z M74,66l8,0 0,8 -8,0 0,-8z M82,66l8,0 0,8 -8,0 0,-8z M114,66l8,0 0,8 -8,0 0,-8z M130,66l8,0 0,8 -8,0 0,-8z M138,66l8,0 0,8 -8,0 0,-8z M146,66l8,0 0,8 -8,0 0,-8z M154,66l8,0 0,8 -8,0 0,-8z M162,66l8,0 0,8 -8,0 0,-8z M170,66l8,0 0,8 -8,0 0,-8z M210,66l8,0 0,8 -8,0 0,-8z M234,66l8,0 0,8 -8,0 0,-8z M250,66l8,0 0,8 -8,0 0,-8z M258,66l8,0 0,8 -8,0 0,-8z M2,74l8,0 0,8 -8,0 0,-8z M26,74l8,0 0,8 -8,0 0,-8z M34,74l8,0 0,8 -8,0 0,-8z M74,74l8,0 0,8 -8,0 0,-8z M82,74l8,0 0,8 -8,0 0,-8z M114,74l8,0 0,8 -8,0 0,-8z M130,74l8,0 0,8 -8,0 0,-8z M146,74l8,0 0,8 -8,0 0,-8z M154,74l8,0 0,8 -8,0 0,-8z M162,74l8,0 0,8 -8,0 0,-8z M170,74l8,0 0,8 -8,0 0,-8z M186,74l8,0 0,8 -8,0 0,-8z M210,74l8,0 0,8 -8,0 0,-8z M218,74l8,0 0,8 -8,0 0,-8z M234,74l8,0 0,8 -8,0 0,-8z M242,74l8,0 0,8 -8,0 0,-8z M258,74l8,0 0,8 -8,0 0,-8z M2,82l8,0 0,8 -8,0 0,-8z M10,82l8,0 0,8 -8,0 0,-8z M42,82l8,0 0,8 -8,0 0,-8z M50,82l8,0 0,8 -8,0 0,-8z M66,82l8,0 0,8 -8,0 0,-8z M74,82l8,0 0,8 -8,0 0,-8z M90,82l8,0 0,8 -8,0 0,-8z M98,82l8,0 0,8 -8,0 0,-8z M114,82l8,0 0,8 -8,0 0,-8z M138,82l8,0 0,8 -8,0 0,-8z M178,82l8,0 0,8 -8,0 0,-8z M186,82l8,0 0,8 -8,0 0,-8z M194,82l8,0 0,8 -8,0 0,-8z M202,82l8,0 0,8 -8,0 0,-8z M218,82l8,0 0,8 -8,0 0,-8z M226,82l8,0 0,8 -8,0 0,-8z M234,82l8,0 0,8 -8,0 0,-8z M258,82l8,0 0,8 -8,0 0,-8z M2,90l8,0 0,8 -8,0 0,-8z M10,90l8,0 0,8 -8,0 0,-8z M26,90l8,0 0,8 -8,0 0,-8z M34,90l8,0 0,8 -8,0 0,-8z M58,90l8,0 0,8 -8,0 0,-8z M74,90l8,0 0,8 -8,0 0,-8z M82,90l8,0 0,8 -8,0 0,-8z M106,90l8,0 0,8 -8,0 0,-8z M114,90l8,0 0,8 -8,0 0,-8z M130,90l8,0 0,8 -8,0 0,-8z M146,90l8,0 0,8 -8,0 0,-8z M154,90l8,0 0,8 -8,0 0,-8z M178,90l8,0 0,8 -8,0 0,-8z M186,90l8,0 0,8 -8,0 0,-8z M210,90l8,0 0,8 -8,0 0,-8z M218,90l8,0 0,8 -8,0 0,-8z M234,90l8,0 0,8 -8,0 0,-8z M2,98l8,0 0,8 -8,0 0,-8z M34,98l8,0 0,8 -8,0 0,-8z M42,98l8,0 0,8 -8,0 0,-8z M50,98l8,0 0,8 -8,0 0,-8z M90,98l8,0 0,8 -8,0 0,-8z M98,98l8,0 0,8 -8,0 0,-8z M146,98l8,0 0,8 -8,0 0,-8z M154,98l8,0 0,8 -8,0 0,-8z M178,98l8,0 0,8 -8,0 0,-8z M202,98l8,0 0,8 -8,0 0,-8z M218,98l8,0 0,8 -8,0 0,-8z M226,98l8,0 0,8 -8,0 0,-8z M234,98l8,0 0,8 -8,0 0,-8z M250,98l8,0 0,8 -8,0 0,-8z M2,106l8,0 0,8 -8,0 0,-8z M34,106l8,0 0,8 -8,0 0,-8z M66,106l8,0 0,8 -8,0 0,-8z M74,106l8,0 0,8 -8,0 0,-8z M98,106l8,0 0,8 -8,0 0,-8z M106,106l8,0 0,8 -8,0 0,-8z M130,106l8,0 0,8 -8,0 0,-8z M138,106l8,0 0,8 -8,0 0,-8z M146,106l8,0 0,8 -8,0 0,-8z M170,106l8,0 0,8 -8,0 0,-8z M178,106l8,0 0,8 -8,0 0,-8z M194,106l8,0 0,8 -8,0 0,-8z M202,106l8,0 0,8 -8,0 0,-8z M218,106l8,0 0,8 -8,0 0,-8z M242,106l8,0 0,8 -8,0 0,-8z M250,106l8,0 0,8 -8,0 0,-8z M50,114l8,0 0,8 -8,0 0,-8z M58,114l8,0 0,8 -8,0 0,-8z M106,114l8,0 0,8 -8,0 0,-8z M122,114l8,0 0,8 -8,0 0,-8z M130,114l8,0 0,8 -8,0 0,-8z M146,114l8,0 0,8 -8,0 0,-8z M170,114l8,0 0,8 -8,0 0,-8z M194,114l8,0 0,8 -8,0 0,-8z M210,114l8,0 0,8 -8,0 0,-8z M226,114l8,0 0,8 -8,0 0,-8z M234,114l8,0 0,8 -8,0 0,-8z M242,114l8,0 0,8 -8,0 0,-8z M18,122l8,0 0,8 -8,0 0,-8z M26,122l8,0 0,8 -8,0 0,-8z M74,122l8,0 0,8 -8,0 0,-8z M82,122l8,0 0,8 -8,0 0,-8z M90,122l8,0 0,8 -8,0 0,-8z M106,122l8,0 0,8 -8,0 0,-8z M130,122l8,0 0,8 -8,0 0,-8z M154,122l8,0 0,8 -8,0 0,-8z M162,122l8,0 0,8 -8,0 0,-8z M170,122l8,0 0,8 -8,0 0,-8z M178,122l8,0 0,8 -8,0 0,-8z M194,122l8,0 0,8 -8,0 0,-8z M202,122l8,0 0,8 -8,0 0,-8z M210,122l8,0 0,8 -8,0 0,-8z M242,122l8,0 0,8 -8,0 0,-8z M18,130l8,0 0,8 -8,0 0,-8z M34,130l8,0 0,8 -8,0 0,-8z M42,130l8,0 0,8 -8,0 0,-8z M50,130l8,0 0,8 -8,0 0,-8z M82,130l8,0 0,8 -8,0 0,-8z M90,130l8,0 0,8 -8,0 0,-8z M98,130l8,0 0,8 -8,0 0,-8z M106,130l8,0 0,8 -8,0 0,-8z M114,130l8,0 0,8 -8,0 0,-8z M122,130l8,0 0,8 -8,0 0,-8z M130,130l8,0 0,8 -8,0 0,-8z M146,130l8,0 0,8 -8,0 0,-8z M154,130l8,0 0,8 -8,0 0,-8z M170,130l8,0 0,8 -8,0 0,-8z M178,130l8,0 0,8 -8,0 0,-8z M202,130l8,0 0,8 -8,0 0,-8z M210,130l8,0 0,8 -8,0 0,-8z M226,130l8,0 0,8 -8,0 0,-8z M234,130l8,0 0,8 -8,0 0,-8z M242,130l8,0 0,8 -8,0 0,-8z M2,138l8,0 0,8 -8,0 0,-8z M10,138l8,0 0,8 -8,0 0,-8z M18,138l8,0 0,8 -8,0 0,-8z M34,138l8,0 0,8 -8,0 0,-8z M58,138l8,0 0,8 -8,0 0,-8z M82,138l8,0 0,8 -8,0 0,-8z M90,138l8,0 0,8 -8,0 0,-8z M98,138l8,0 0,8 -8,0 0,-8z M114,138l8,0 0,8 -8,0 0,-8z M122,138l8,0 0,8 -8,0 0,-8z M138,138l8,0 0,8 -8,0 0,-8z M146,138l8,0 0,8 -8,0 0,-8z M162,138l8,0 0,8 -8,0 0,-8z M178,138l8,0 0,8 -8,0 0,-8z M186,138l8,0 0,8 -8,0 0,-8z M194,138l8,0 0,8 -8,0 0,-8z M210,138l8,0 0,8 -8,0 0,-8z M226,138l8,0 0,8 -8,0 0,-8z M234,138l8,0 0,8 -8,0 0,-8z M250,138l8,0 0,8 -8,0 0,-8z M258,138l8,0 0,8 -8,0 0,-8z M18,146l8,0 0,8 -8,0 0,-8z M26,146l8,0 0,8 -8,0 0,-8z M42,146l8,0 0,8 -8,0 0,-8z M50,146l8,0 0,8 -8,0 0,-8z M58,146l8,0 0,8 -8,0 0,-8z M90,146l8,0 0,8 -8,0 0,-8z M114,146l8,0 0,8 -8,0 0,-8z M122,146l8,0 0,8 -8,0 0,-8z M130,146l8,0 0,8 -8,0 0,-8z M138,146l8,0 0,8 -8,0 0,-8z M162,146l8,0 0,8 -8,0 0,-8z M218,146l8,0 0,8 -8,0 0,-8z M226,146l8,0 0,8 -8,0 0,-8z M242,146l8,0 0,8 -8,0 0,-8z M250,146l8,0 0,8 -8,0 0,-8z M2,154l8,0 0,8 -8,0 0,-8z M10,154l8,0 0,8 -8,0 0,-8z M18,154l8,0 0,8 -8,0 0,-8z M26,154l8,0 0,8 -8,0 0,-8z M34,154l8,0 0,8 -8,0 0,-8z M58,154l8,0 0,8 -8,0 0,-8z M74,154l8,0 0,8 -8,0 0,-8z M90,154l8,0 0,8 -8,0 0,-8z M98,154l8,0 0,8 -8,0 0,-8z M114,154l8,0 0,8 -8,0 0,-8z M130,154l8,0 0,8 -8,0 0,-8z M194,154l8,0 0,8 -8,0 0,-8z M210,154l8,0 0,8 -8,0 0,-8z M226,154l8,0 0,8 -8,0 0,-8z M258,154l8,0 0,8 -8,0 0,-8z M26,162l8,0 0,8 -8,0 0,-8z M50,162l8,0 0,8 -8,0 0,-8z M58,162l8,0 0,8 -8,0 0,-8z M66,162l8,0 0,8 -8,0 0,-8z M90,162l8,0 0,8 -8,0 0,-8z M98,162l8,0 0,8 -8,0 0,-8z M114,162l8,0 0,8 -8,0 0,-8z M146,162l8,0 0,8 -8,0 0,-8z M170,162l8,0 0,8 -8,0 0,-8z M186,162l8,0 0,8 -8,0 0,-8z M202,162l8,0 0,8 -8,0 0,-8z M218,162l8,0 0,8 -8,0 0,-8z M234,162l8,0 0,8 -8,0 0,-8z M242,162l8,0 0,8 -8,0 0,-8z M258,162l8,0 0,8 -8,0 0,-8z M2,170l8,0 0,8 -8,0 0,-8z M10,170l8,0 0,8 -8,0 0,-8z M18,170l8,0 0,8 -8,0 0,-8z M34,170l8,0 0,8 -8,0 0,-8z M42,170l8,0 0,8 -8,0 0,-8z M58,170l8,0 0,8 -8,0 0,-8z M122,170l8,0 0,8 -8,0 0,-8z M146,170l8,0 0,8 -8,0 0,-8z M186,170l8,0 0,8 -8,0 0,-8z M210,170l8,0 0,8 -8,0 0,-8z M242,170l8,0 0,8 -8,0 0,-8z M258,170l8,0 0,8 -8,0 0,-8z M34,178l8,0 0,8 -8,0 0,-8z M42,178l8,0 0,8 -8,0 0,-8z M50,178l8,0 0,8 -8,0 0,-8z M74,178l8,0 0,8 -8,0 0,-8z M98,178l8,0 0,8 -8,0 0,-8z M114,178l8,0 0,8 -8,0 0,-8z M130,178l8,0 0,8 -8,0 0,-8z M178,178l8,0 0,8 -8,0 0,-8z M186,178l8,0 0,8 -8,0 0,-8z M194,178l8,0 0,8 -8,0 0,-8z M210,178l8,0 0,8 -8,0 0,-8z M218,178l8,0 0,8 -8,0 0,-8z M226,178l8,0 0,8 -8,0 0,-8z M242,178l8,0 0,8 -8,0 0,-8z M250,178l8,0 0,8 -8,0 0,-8z M258,178l8,0 0,8 -8,0 0,-8z M10,186l8,0 0,8 -8,0 0,-8z M26,186l8,0 0,8 -8,0 0,-8z M34,186l8,0 0,8 -8,0 0,-8z M42,186l8,0 0,8 -8,0 0,-8z M58,186l8,0 0,8 -8,0 0,-8z M66,186l8,0 0,8 -8,0 0,-8z M106,186l8,0 0,8 -8,0 0,-8z M130,186l8,0 0,8 -8,0 0,-8z M178,186l8,0 0,8 -8,0 0,-8z M186,186l8,0 0,8 -8,0 0,-8z M194,186l8,0 0,8 -8,0 0,-8z M210,186l8,0 0,8 -8,0 0,-8z M226,186l8,0 0,8 -8,0 0,-8z M250,186l8,0 0,8 -8,0 0,-8z M258,186l8,0 0,8 -8,0 0,-8z M2,194l8,0 0,8 -8,0 0,-8z M26,194l8,0 0,8 -8,0 0,-8z M34,194l8,0 0,8 -8,0 0,-8z M42,194l8,0 0,8 -8,0 0,-8z M50,194l8,0 0,8 -8,0 0,-8z M66,194l8,0 0,8 -8,0 0,-8z M82,194l8,0 0,8 -8,0 0,-8z M98,194l8,0 0,8 -8,0 0,-8z M106,194l8,0 0,8 -8,0 0,-8z M114,194l8,0 0,8 -8,0 0,-8z M122,194l8,0 0,8 -8,0 0,-8z M138,194l8,0 0,8 -8,0 0,-8z M178,194l8,0 0,8 -8,0 0,-8z M194,194l8,0 0,8 -8,0 0,-8z M202,194l8,0 0,8 -8,0 0,-8z M210,194l8,0 0,8 -8,0 0,-8z M218,194l8,0 0,8 -8,0 0,-8z M226,194l8,0 0,8 -8,0 0,-8z M66,202l8,0 0,8 -8,0 0,-8z M74,202l8,0 0,8 -8,0 0,-8z M82,202l8,0 0,8 -8,0 0,-8z M98,202l8,0 0,8 -8,0 0,-8z M106,202l8,0 0,8 -8,0 0,-8z M114,202l8,0 0,8 -8,0 0,-8z M122,202l8,0 0,8 -8,0 0,-8z M130,202l8,0 0,8 -8,0 0,-8z M138,202l8,0 0,8 -8,0 0,-8z M146,202l8,0 0,8 -8,0 0,-8z M154,202l8,0 0,8 -8,0 0,-8z M170,202l8,0 0,8 -8,0 0,-8z M186,202l8,0 0,8 -8,0 0,-8z M194,202l8,0 0,8 -8,0 0,-8z M226,202l8,0 0,8 -8,0 0,-8z M234,202l8,0 0,8 -8,0 0,-8z M2,210l8,0 0,8 -8,0 0,-8z M10,210l8,0 0,8 -8,0 0,-8z M18,210l8,0 0,8 -8,0 0,-8z M26,210l8,0 0,8 -8,0 0,-8z M34,210l8,0 0,8 -8,0 0,-8z M42,210l8,0 0,8 -8,0 0,-8z M50,210l8,0 0,8 -8,0 0,-8z M66,210l8,0 0,8 -8,0 0,-8z M106,210l8,0 0,8 -8,0 0,-8z M130,210l8,0 0,8 -8,0 0,-8z M154,210l8,0 0,8 -8,0 0,-8z M162,210l8,0 0,8 -8,0 0,-8z M170,210l8,0 0,8 -8,0 0,-8z M186,210l8,0 0,8 -8,0 0,-8z M194,210l8,0 0,8 -8,0 0,-8z M210,210l8,0 0,8 -8,0 0,-8z M226,210l8,0 0,8 -8,0 0,-8z M2,218l8,0 0,8 -8,0 0,-8z M50,218l8,0 0,8 -8,0 0,-8z M66,218l8,0 0,8 -8,0 0,-8z M90,218l8,0 0,8 -8,0 0,-8z M98,218l8,0 0,8 -8,0 0,-8z M130,218l8,0 0,8 -8,0 0,-8z M162,218l8,0 0,8 -8,0 0,-8z M170,218l8,0 0,8 -8,0 0,-8z M178,218l8,0 0,8 -8,0 0,-8z M186,218l8,0 0,8 -8,0 0,-8z M194,218l8,0 0,8 -8,0 0,-8z M226,218l8,0 0,8 -8,0 0,-8z M234,218l8,0 0,8 -8,0 0,-8z M242,218l8,0 0,8 -8,0 0,-8z M2,226l8,0 0,8 -8,0 0,-8z M18,226l8,0 0,8 -8,0 0,-8z M26,226l8,0 0,8 -8,0 0,-8z M34,226l8,0 0,8 -8,0 0,-8z M50,226l8,0 0,8 -8,0 0,-8z M74,226l8,0 0,8 -8,0 0,-8z M106,226l8,0 0,8 -8,0 0,-8z M114,226l8,0 0,8 -8,0 0,-8z M122,226l8,0 0,8 -8,0 0,-8z M138,226l8,0 0,8 -8,0 0,-8z M154,226l8,0 0,8 -8,0 0,-8z M170,226l8,0 0,8 -8,0 0,-8z M178,226l8,0 0,8 -8,0 0,-8z M186,226l8,0 0,8 -8,0 0,-8z M194,226l8,0 0,8 -8,0 0,-8z M202,226l8,0 0,8 -8,0 0,-8z M210,226l8,0 0,8 -8,0 0,-8z M218,226l8,0 0,8 -8,0 0,-8z M226,226l8,0 0,8 -8,0 0,-8z M242,226l8,0 0,8 -8,0 0,-8z M258,226l8,0 0,8 -8,0 0,-8z M2,234l8,0 0,8 -8,0 0,-8z M18,234l8,0 0,8 -8,0 0,-8z M26,234l8,0 0,8 -8,0 0,-8z M34,234l8,0 0,8 -8,0 0,-8z M50,234l8,0 0,8 -8,0 0,-8z M66,234l8,0 0,8 -8,0 0,-8z M82,234l8,0 0,8 -8,0 0,-8z M90,234l8,0 0,8 -8,0 0,-8z M138,234l8,0 0,8 -8,0 0,-8z M146,234l8,0 0,8 -8,0 0,-8z M162,234l8,0 0,8 -8,0 0,-8z M170,234l8,0 0,8 -8,0 0,-8z M178,234l8,0 0,8 -8,0 0,-8z M218,234l8,0 0,8 -8,0 0,-8z M234,234l8,0 0,8 -8,0 0,-8z M242,234l8,0 0,8 -8,0 0,-8z M258,234l8,0 0,8 -8,0 0,-8z M2,242l8,0 0,8 -8,0 0,-8z M18,242l8,0 0,8 -8,0 0,-8z M26,242l8,0 0,8 -8,0 0,-8z M34,242l8,0 0,8 -8,0 0,-8z M50,242l8,0 0,8 -8,0 0,-8z M66,242l8,0 0,8 -8,0 0,-8z M114,242l8,0 0,8 -8,0 0,-8z M146,242l8,0 0,8 -8,0 0,-8z M162,242l8,0 0,8 -8,0 0,-8z M170,242l8,0 0,8 -8,0 0,-8z M178,242l8,0 0,8 -8,0 0,-8z M186,242l8,0 0,8 -8,0 0,-8z M194,242l8,0 0,8 -8,0 0,-8z M202,242l8,0 0,8 -8,0 0,-8z M210,242l8,0 0,8 -8,0 0,-8z M218,242l8,0 0,8 -8,0 0,-8z M234,242l8,0 0,8 -8,0 0,-8z M2,250l8,0 0,8 -8,0 0,-8z M50,250l8,0 0,8 -8,0 0,-8z M74,250l8,0 0,8 -8,0 0,-8z M82,250l8,0 0,8 -8,0 0,-8z M90,250l8,0 0,8 -8,0 0,-8z M98,250l8,0 0,8 -8,0 0,-8z M106,250l8,0 0,8 -8,0 0,-8z M114,250l8,0 0,8 -8,0 0,-8z M122,250l8,0 0,8 -8,0 0,-8z M130,250l8,0 0,8 -8,0 0,-8z M138,250l8,0 0,8 -8,0 0,-8z M146,250l8,0 0,8 -8,0 0,-8z M178,250l8,0 0,8 -8,0 0,-8z M194,250l8,0 0,8 -8,0 0,-8z M202,250l8,0 0,8 -8,0 0,-8z M218,250l8,0 0,8 -8,0 0,-8z M226,250l8,0 0,8 -8,0 0,-8z M258,250l8,0 0,8 -8,0 0,-8z M2,258l8,0 0,8 -8,0 0,-8z M10,258l8,0 0,8 -8,0 0,-8z M18,258l8,0 0,8 -8,0 0,-8z M26,258l8,0 0,8 -8,0 0,-8z M34,258l8,0 0,8 -8,0 0,-8z M42,258l8,0 0,8 -8,0 0,-8z M50,258l8,0 0,8 -8,0 0,-8z M66,258l8,0 0,8 -8,0 0,-8z M74,258l8,0 0,8 -8,0 0,-8z M82,258l8,0 0,8 -8,0 0,-8z M90,258l8,0 0,8 -8,0 0,-8z M98,258l8,0 0,8 -8,0 0,-8z M106,258l8,0 0,8 -8,0 0,-8z M122,258l8,0 0,8 -8,0 0,-8z M130,258l8,0 0,8 -8,0 0,-8z M138,258l8,0 0,8 -8,0 0,-8z M170,258l8,0 0,8 -8,0 0,-8z M178,258l8,0 0,8 -8,0 0,-8z M186,258l8,0 0,8 -8,0 0,-8z M210,258l8,0 0,8 -8,0 0,-8z M226,258l8,0 0,8 -8,0 0,-8z M234,258l8,0 0,8 -8,0 0,-8z M242,258l8,0 0,8 -8,0 0,-8z " stroke="transparent" fill="black"/></svg>
